raise_box
version=1
nRows=4
nColumns=115
inDegrees=yes
endheader
time HIPS_TX HIPS_TY HIPS_TZ HIPS_RX HIPS_RY HIPS_RZ SPINE_TX SPINE_TY SPINE_TZ SPINE_RX SPINE_RY SPINE_RZ CHEST_TX CHEST_TY CHEST_TZ CHEST_RX CHEST_RY CHEST_RZ NECK_TX NECK_TY NECK_TZ NECK_RX NECK_RY NECK_RZ SHOULDER_L_TX SHOULDER_L_TY SHOULDER_L_TZ SHOULDER_L_RX SHOULDER_L_RY SHOULDER_L_RZ ARM_L_TX ARM_L_TY ARM_L_TZ ARM_L_RX ARM_L_RY ARM_L_RZ FOREARM_L_TX FOREARM_L_TY FOREARM_L_TZ FOREARM_L_RX FOREARM_L_RY FOREARM_L_RZ HAND_L_TX HAND_L_TY HAND_L_TZ HAND_L_RX HAND_L_RY HAND_L_RZ SHOULDER_R_TX SHOULDER_R_TY SHOULDER_R_TZ SHOULDER_R_RX SHOULDER_R_RY SHOULDER_R_RZ ARM_R_TX ARM_R_TY ARM_R_TZ ARM_R_RX ARM_R_RY ARM_R_RZ FOREARM_R_TX FOREARM_R_TY FOREARM_R_TZ FOREARM_R_RX FOREARM_R_RY FOREARM_R_RZ HAND_R_TX HAND_R_TY HAND_R_TZ HAND_R_RX HAND_R_RY HAND_R_RZ UPLEG_L_TX UPLEG_L_TY UPLEG_L_TZ UPLEG_L_RX UPLEG_L_RY UPLEG_L_RZ LEG_L_TX LEG_L_TY LEG_L_TZ LEG_L_RX LEG_L_RY LEG_L_RZ FOOT_L_TX FOOT_L_TY FOOT_L_TZ FOOT_L_RX FOOT_L_RY FOOT_L_RZ UPLEG_R_TX UPLEG_R_TY UPLEG_R_TZ UPLEG_R_RX UPLEG_R_RY UPLEG_R_RZ LEG_R_TX LEG_R_TY LEG_R_TZ LEG_R_RX LEG_R_RY LEG_R_RZ FOOT_R_TX FOOT_R_TY FOOT_R_TZ FOOT_R_RX FOOT_R_RY FOOT_R_RZ HEAD_TX HEAD_TY HEAD_TZ HEAD_RX HEAD_RY HEAD_RZ
9.77535915 0.23906000 0.11945300 1.75466394 169.70167490 5.97953596 -177.94756738 0.00000000 0.00000000 0.00000000 -9.03586560 0.00001181 -0.00005392 0.00000000 0.00000000 0.00000000 -20.02601489 1.09330127 -1.47342710 0.00000000 0.00000000 0.00000000 9.19935899 0.00002725 -0.00006294 0.00000000 0.00000000 0.00000000 2.78221866 -20.12177785 15.55155240 0.00000000 0.00000000 0.00000000 -91.85681542 -44.59803777 -26.74605946 0.00000000 0.00000000 0.00000000 -0.00010501 -28.16801833 -0.00004091 0.00000000 0.00000000 0.00000000 -136.64528647 -21.49810824 -35.55104230 0.00000000 0.00000000 0.00000000 1.55220225 19.59622927 -12.46115958 0.00000000 0.00000000 0.00000000 -82.37708578 49.84816611 17.30058091 0.00000000 0.00000000 0.00000000 -0.00002668 31.20910709 0.00003842 0.00000000 0.00000000 0.00000000 -104.85894531 31.07766396 13.40697401 0.00000000 0.00000000 0.00000000 -16.20843181 1.62494917 3.24531005 0.00000000 0.00000000 0.00000000 19.35566123 -0.00225422 -0.00725802 0.00000000 0.00000000 0.00000000 -16.04622895 11.91551870 2.02608067 0.00000000 0.00000000 0.00000000 -13.70665311 -18.96636129 -7.04652456 0.00000000 0.00000000 0.00000000 9.69515120 0.00257189 0.01313001 0.00000000 0.00000000 0.00000000 -8.89984324 -2.25691334 -0.11349964 0.00000000 0.00000000 0.00000000 8.28118328 -2.05314100 2.55767788
9.78636074 0.23906000 0.11945300 1.75466394 169.70167490 5.97953596 -177.94756738 0.00000000 0.00000000 0.00000000 -9.03586560 0.00001181 -0.00005392 0.00000000 0.00000000 0.00000000 -20.02601489 1.09330127 -1.47342710 0.00000000 0.00000000 0.00000000 9.19935899 0.00002725 -0.00006294 0.00000000 0.00000000 0.00000000 2.78221866 -20.12177785 15.55155240 0.00000000 0.00000000 0.00000000 -91.85681542 -44.59803777 -26.74605946 0.00000000 0.00000000 0.00000000 -0.00010501 -28.16801833 -0.00004091 0.00000000 0.00000000 0.00000000 -136.64528647 -21.49810824 -35.55104230 0.00000000 0.00000000 0.00000000 1.55220225 19.59622927 -12.46115958 0.00000000 0.00000000 0.00000000 -82.37708578 49.84816611 17.30058091 0.00000000 0.00000000 0.00000000 -0.00002668 31.20910709 0.00003842 0.00000000 0.00000000 0.00000000 -104.85894531 31.07766396 13.40697401 0.00000000 0.00000000 0.00000000 -16.20843181 1.62494917 3.24531005 0.00000000 0.00000000 0.00000000 19.35566123 -0.00225422 -0.00725802 0.00000000 0.00000000 0.00000000 -16.04622895 11.91551870 2.02608067 0.00000000 0.00000000 0.00000000 -13.70665311 -18.96636129 -7.04652456 0.00000000 0.00000000 0.00000000 9.69515120 0.00257189 0.01313001 0.00000000 0.00000000 0.00000000 -8.89984324 -2.25691334 -0.11349964 0.00000000 0.00000000 0.00000000 8.28118328 -2.05314100 2.55767788
9.79735756 0.23906000 0.11945300 1.75466394 169.70167490 5.97953596 -177.94756738 0.00000000 0.00000000 0.00000000 -9.03586560 0.00001181 -0.00005392 0.00000000 0.00000000 0.00000000 -20.02601489 1.09330127 -1.47342710 0.00000000 0.00000000 0.00000000 9.19935899 0.00002725 -0.00006294 0.00000000 0.00000000 0.00000000 2.78221866 -20.12177785 15.55155240 0.00000000 0.00000000 0.00000000 -91.85681542 -44.59803777 -26.74605946 0.00000000 0.00000000 0.00000000 -0.00010501 -28.16801833 -0.00004091 0.00000000 0.00000000 0.00000000 -136.64528647 -21.49810824 -35.55104230 0.00000000 0.00000000 0.00000000 1.55220225 19.59622927 -12.46115958 0.00000000 0.00000000 0.00000000 -82.37708578 49.84816611 17.30058091 0.00000000 0.00000000 0.00000000 -0.00002668 31.20910709 0.00003842 0.00000000 0.00000000 0.00000000 -104.85894531 31.07766396 13.40697401 0.00000000 0.00000000 0.00000000 -16.20843181 1.62494917 3.24531005 0.00000000 0.00000000 0.00000000 19.35566123 -0.00225422 -0.00725802 0.00000000 0.00000000 0.00000000 -16.04622895 11.91551870 2.02608067 0.00000000 0.00000000 0.00000000 -13.70665311 -18.96636129 -7.04652456 0.00000000 0.00000000 0.00000000 9.69515120 0.00257189 0.01313001 0.00000000 0.00000000 0.00000000 -8.89984324 -2.25691334 -0.11349964 0.00000000 0.00000000 0.00000000 8.28118328 -2.05314100 2.55767788
9.80835629 0.23847701 0.11964000 1.75461197 169.68510719 5.97075630 -177.89942748 0.00000000 0.00000000 0.00000000 -9.01001740 0.00000065 -0.00004199 0.00000000 0.00000000 0.00000000 -19.99246306 1.16166344 -1.39222947 0.00000000 0.00000000 0.00000000 9.19928904 -0.00008496 0.00003881 0.00000000 0.00000000 0.00000000 2.74699947 -19.98803265 15.55001835 0.00000000 0.00000000 0.00000000 -91.77554850 -44.72937770 -26.54093936 0.00000000 0.00000000 0.00000000 0.00007173 -28.48101794 0.00003592 0.00000000 0.00000000 0.00000000 -134.19110229 -19.49325841 -36.23142609 0.00000000 0.00000000 0.00000000 1.46484676 19.46051419 -12.29033428 0.00000000 0.00000000 0.00000000 -82.22152809 49.79075508 17.16895128 0.00000000 0.00000000 0.00000000 -0.00008551 31.56654006 -0.00002045 0.00000000 0.00000000 0.00000000 -105.40505818 30.78090997 15.36604879 0.00000000 0.00000000 0.00000000 -16.22375898 1.63097935 3.25190882 0.00000000 0.00000000 0.00000000 19.37129415 -0.00225868 -0.00717835 0.00000000 0.00000000 0.00000000 -15.74287450 11.93112142 1.96417673 0.00000000 0.00000000 0.00000000 -13.73360138 -18.94178559 -7.05122154 0.00000000 0.00000000 0.00000000 9.60401180 0.00259740 0.01322328 0.00000000 0.00000000 0.00000000 -9.02742801 -2.11220311 -0.11199255 0.00000000 0.00000000 0.00000000 7.23408145 -2.55292388 0.68756945
